<svg width="245" height="214" xmlns="http://www.w3.org/2000/svg" xmlns:xlink="http://www.w3.org/1999/xlink" overflow="hidden"><defs><clipPath id="clip0"><rect x="57" y="465" width="245" height="214"/></clipPath></defs><g clip-path="url(#clip0)" transform="translate(-57 -465)"><path d="M2.02636 259.711 31.4085 259.711 30.0576 265.79 19.2504 265.79 12.4959 297.874 4.72816 297.874 11.4827 265.79 0.675452 265.79ZM55.387 257.009 62.817 257.009 59.4398 272.545C61.4661 270.856 64.1679 269.168 67.2075 269.168 72.6111 269.168 76.326 272.545 76.326 278.286 76.326 280.312 75.6506 282.677 75.3129 284.365L72.2733 297.874 64.8434 297.874 67.5452 284.703C67.8829 282.677 68.2206 280.988 68.2206 278.962 68.2206 276.598 66.532 274.909 64.1679 274.909 59.102 274.909 57.4134 279.637 56.4002 283.69L53.3607 297.874 45.9307 297.874 55.387 257.009ZM106.384 286.054C106.384 291.12 109.085 293.146 114.151 293.146 117.191 293.146 119.893 292.471 122.594 291.12L121.581 296.861C118.88 297.874 115.502 298.55 112.8 298.55 104.695 298.55 99.2914 294.497 99.2914 286.392 99.2914 277.611 106.046 269.168 115.165 269.168 121.919 269.168 126.647 272.545 126.647 279.975 126.647 282.001 126.309 284.027 125.972 286.392L106.384 286.392 106.384 286.054ZM119.555 280.988 119.555 278.962C119.555 275.922 117.866 274.233 114.827 274.233 110.436 274.233 108.41 276.935 107.059 280.65L119.555 280.65 119.555 280.988ZM227.627 267.817C224.588 265.79 221.21 265.115 217.158 265.115 208.039 265.115 201.96 272.207 201.96 281.326 201.96 287.405 206.351 292.471 212.767 292.471 214.456 292.471 215.807 292.471 216.482 292.133L218.509 282.001 210.403 282.001 211.754 275.922 227.29 275.922 222.899 296.523C220.535 297.536 216.482 298.212 212.767 298.212 201.622 298.212 194.192 293.146 194.192 281.326 194.192 267.479 203.311 259.036 216.82 259.036 221.21 259.036 225.601 259.711 229.316 261.062L227.627 267.817ZM256.672 286.054C256.672 291.12 259.373 293.146 264.439 293.146 267.479 293.146 270.181 292.471 272.883 291.12L271.869 296.861C269.168 297.874 265.79 298.55 263.088 298.55 254.983 298.55 249.579 294.497 249.579 286.392 249.579 277.611 256.334 269.168 265.453 269.168 272.207 269.168 276.935 272.545 276.935 279.975 276.935 282.001 276.598 284.027 276.26 286.392L256.672 286.392 256.672 286.054ZM270.181 280.988 270.181 278.962C270.181 275.922 268.492 274.233 265.453 274.233 261.062 274.233 259.036 276.935 257.685 280.65L270.181 280.65 270.181 280.988ZM328.945 281.326C328.945 291.12 322.19 298.212 312.396 298.212 304.629 298.212 299.563 293.484 299.563 285.378 299.563 275.922 306.655 268.83 316.111 268.83 323.541 269.168 328.945 273.558 328.945 281.326ZM321.177 281.326C321.177 277.611 319.826 274.571 315.774 274.571 310.032 274.571 306.993 280.988 306.993 286.054 306.993 289.769 308.681 292.471 312.734 292.471 318.476 292.808 321.177 286.392 321.177 281.326ZM358.665 259.711 366.433 259.711 359.678 291.795 374.538 291.795 373.187 297.874 350.897 297.874ZM414.39 293.484C411.688 296.523 409.324 298.55 405.271 298.55 400.205 298.55 396.49 295.848 396.49 290.444 396.49 281.326 406.96 280.65 413.714 280.65L416.416 280.65C416.754 279.975 416.754 278.962 416.754 278.286 416.754 275.584 413.714 274.571 411.012 274.571 407.973 274.571 404.596 275.247 401.894 276.598L402.907 270.856C405.947 269.843 409.324 269.168 412.363 269.168 418.105 269.168 423.171 271.194 423.171 277.948 423.171 281.663 420.469 292.808 419.793 297.874L413.714 297.874 414.39 293.484ZM407.297 293.146C412.701 293.146 414.39 289.431 415.403 285.041L412.701 285.041C409.324 285.041 403.245 285.716 403.245 290.444 403.582 292.133 405.609 293.146 407.297 293.146ZM451.202 273.896C451.539 272.207 451.877 270.856 451.877 269.843L458.969 269.843 458.632 272.545C460.658 270.856 463.36 269.168 466.399 269.168 471.803 269.168 475.518 272.545 475.518 278.286 475.518 280.312 474.843 282.677 474.505 284.365L471.465 297.874 464.035 297.874 466.737 284.703C467.075 282.677 467.413 280.988 467.413 278.962 467.413 276.598 465.724 274.909 463.36 274.909 458.294 274.909 456.605 279.637 455.592 283.69L452.553 297.874 445.798 297.874 451.202 273.896ZM499.159 301.927C502.198 303.278 504.9 303.953 507.94 303.953 515.707 303.953 516.721 298.55 518.409 292.133 516.721 295.51 513.006 297.536 508.953 297.536 502.198 297.536 499.159 291.795 499.159 285.716 499.159 277.273 504.225 268.83 513.343 268.83 517.058 268.83 520.098 270.518 521.786 273.558L522.462 269.505 529.554 269.505C529.216 270.181 528.879 271.532 528.541 273.558L524.151 294.497C522.462 303.616 518.409 309.695 508.277 309.695 504.562 309.695 500.51 309.019 497.132 307.668L499.159 301.927ZM514.357 274.909C508.953 274.909 506.927 281.663 506.927 286.054 506.927 289.431 508.277 292.133 511.655 292.133 517.396 292.133 519.76 286.054 519.76 280.65 519.76 277.273 517.734 274.909 514.357 274.909ZM576.498 293.822C576.16 295.51 575.823 296.861 575.823 297.874L568.73 297.874 569.068 295.172C567.042 296.861 564.34 298.55 561.3 298.55 555.897 298.55 552.182 295.172 552.182 289.431 552.182 287.405 552.857 285.041 553.195 283.352L556.234 269.843 563.664 269.843 560.963 283.014C560.625 285.041 560.287 286.729 560.287 288.756 560.287 291.12 561.976 292.808 564.34 292.808 569.406 292.808 571.094 288.08 572.108 284.027L575.147 269.843 582.577 269.843 576.498 293.822ZM620.065 293.484C617.363 296.523 614.999 298.55 610.946 298.55 605.88 298.55 602.165 295.848 602.165 290.444 602.165 281.326 612.635 280.65 619.389 280.65L622.091 280.65C622.429 279.975 622.429 278.962 622.429 278.286 622.429 275.584 619.389 274.571 616.688 274.571 613.648 274.571 610.271 275.247 607.569 276.598L608.582 270.856C611.622 269.843 614.999 269.168 618.038 269.168 623.78 269.168 628.846 271.194 628.846 277.948 628.846 281.663 626.144 292.808 625.468 297.874L619.389 297.874 620.065 293.484ZM612.972 293.146C618.376 293.146 620.065 289.431 621.078 285.041L618.376 285.041C614.999 285.041 608.92 285.716 608.92 290.444 609.257 292.133 611.284 293.146 612.972 293.146ZM652.486 301.927C655.526 303.278 658.228 303.953 661.267 303.953 669.035 303.953 670.048 298.55 671.737 292.133 670.048 295.51 666.333 297.536 662.28 297.536 655.526 297.536 652.486 291.795 652.486 285.716 652.486 277.273 657.552 268.83 666.671 268.83 670.386 268.83 673.425 270.518 675.114 273.558L675.789 269.505 682.882 269.505C682.544 270.181 682.206 271.532 681.869 273.558L677.478 294.497C675.789 303.616 671.737 309.695 661.605 309.695 657.89 309.695 653.837 309.019 650.46 307.668L652.486 301.927ZM668.022 274.909C662.618 274.909 660.592 281.663 660.592 286.054 660.592 289.431 661.943 292.133 665.32 292.133 671.061 292.133 673.425 286.054 673.425 280.65 673.088 277.273 671.399 274.909 668.022 274.909ZM711.251 286.054C711.251 291.12 713.953 293.146 719.018 293.146 722.058 293.146 724.76 292.471 727.462 291.12L726.448 296.861C723.747 297.874 720.369 298.55 717.667 298.55 709.562 298.55 704.158 294.497 704.158 286.392 704.158 277.611 710.913 269.168 720.032 269.168 726.786 269.168 731.514 272.545 731.514 279.975 731.514 282.001 731.177 284.027 730.839 286.392L711.251 286.392 711.251 286.054ZM724.76 280.988 724.76 278.962C724.76 275.922 723.071 274.233 720.032 274.233 715.641 274.233 713.615 276.935 712.264 280.65L724.76 280.65 724.76 280.988Z" fill="#004489" transform="matrix(1.10201 0 0 1 -505.621 465)"/><path d="M3.71498 121.919 21.2767 121.919 21.2767 209.052 3.71498 209.052ZM39.1762 121.919 60.7907 121.919 93.8878 187.1 94.2255 187.1 94.2255 121.919 111.112 121.919 111.112 209.052 89.8351 209.052 56.4002 143.871 56.0625 143.871 56.0625 209.052 39.1762 209.052ZM146.235 135.428 121.244 135.428 121.244 121.581 188.789 121.581 188.789 135.428 163.797 135.428 163.797 209.052 146.235 209.052 146.235 135.428ZM199.934 121.919 251.268 121.919 251.268 135.766 217.158 135.766 217.158 157.38 248.229 157.38 248.229 171.227 217.158 171.227 217.158 195.881 251.268 195.881 251.268 209.728 199.596 209.728 199.596 121.919ZM267.817 121.919 286.729 121.919C305.642 121.919 327.932 121.244 327.932 145.56 327.932 155.692 321.177 164.135 310.032 165.823L310.032 166.161C314.76 166.499 317.462 171.227 319.151 175.28L332.998 209.39 313.41 209.39 302.94 182.034C300.576 175.617 298.212 172.916 290.782 172.916L285.041 172.916 285.041 209.052 267.479 209.052 267.479 121.919 267.817 121.919ZM285.378 159.069 291.12 159.069C299.901 159.069 309.695 157.718 309.695 146.911 309.695 136.441 299.901 135.428 291.12 135.428L285.378 135.428 285.378 159.069ZM345.494 121.919 363.055 121.919 363.055 195.543 396.828 195.543 396.828 209.39 345.494 209.39ZM406.622 121.919 424.184 121.919 424.184 209.052 406.622 209.052ZM489.703 137.792C484.299 135.428 478.22 134.077 471.803 134.077 465.724 134.077 457.956 136.779 457.956 146.235 457.956 161.433 496.119 155.016 496.119 184.061 496.119 203.311 480.922 210.403 463.36 210.403 453.904 210.403 449.513 209.052 441.07 207.026L442.759 191.153C448.838 194.53 455.592 196.556 462.347 196.556 469.101 196.556 477.882 193.179 477.882 185.412 477.882 168.863 439.719 175.617 439.719 146.911 439.719 127.323 454.917 120.23 470.114 120.23 477.544 120.23 484.637 121.244 491.053 123.27L489.703 137.792Z" fill="#004489" transform="matrix(1.10201 0 0 1 -505.621 465)"/><path d="M731.177 210.066 731.177 1.68863C724.76 1.01318 718.343 0.675452 711.588 0.675452 606.218 0.675452 520.773 86.1201 520.773 191.491 520.773 197.907 521.111 203.986 521.786 210.066 521.786 210.066 731.852 210.741 731.177 210.066Z" fill="#004489" transform="matrix(1.10201 0 0 1 -505.621 465)"/><path d="M714.628 109.085C667.684 109.085 629.521 147.248 629.521 194.192 629.521 199.934 630.197 205.337 631.21 210.403L731.514 210.403 731.514 111.112C726.111 109.761 720.369 109.085 714.628 109.085Z" fill="#DA2520" transform="matrix(1.10201 0 0 1 -505.621 465)"/></g></svg>